mtllib catbox.mtl

v -1.0 -1.0 1.0
v 1.0 -1.0 1.0
v 1.0 1.0 1.0
v -1.0 1.0 1.0
v 1.0 -1.0 -1.0
v -1.0 -1.0 -1.0
v 1.0 1.0 -1.0
v -1.0 1.0 -1.0

#For testing texture wrapping
vt 0.0 0.0
vt 3.0 0.0
vt 3.0 3.0
vt 0.0 3.0

vn 0.0 0.0 1.0
vn 0.0 0.0 -1.0
vn 1.0 0.0 1.0
vn -1.0 0.0 1.0
vn 0.0 1.0 1.0
vn 0.0 -1.0 1.0

g CatBox
usemtl CatBox

f 1/1/1 2/2/1 3/3/1
f 1/1/1 3/3/1 4/4/1

f 5/1/2 6/2/2 8/3/2
f 5/1/2 8/3/2 7/4/2

f 2/1/3 5/2/3 7/3/3
f 2/1/3 7/3/3 3/4/3

f 6/1/4 1/2/4 4/3/4
f 6/1/4 4/3/4 8/4/4

f 4/1/5 3/2/5 7/3/5
f 4/1/5 7/3/5 8/4/5

f 6/1/6 5/2/6 2/3/6
f 6/1/6 2/3/6 1/4/6